<svg width="242" height="249" viewBox="0 0 242 249" fill="none" xmlns="http://www.w3.org/2000/svg">
<path d="M120.575 227.966C182.058 227.966 231.899 178.124 231.899 116.642C231.899 55.1588 182.058 5.31711 120.575 5.31711C59.0922 5.31711 9.25049 55.1588 9.25049 116.642C9.25049 178.124 59.0922 227.966 120.575 227.966Z" fill="#CEF3FC"/>
<path d="M23.7426 92.9671L23.1616 92.8668C23.1911 92.6958 26.2522 75.63 38.0865 62.5423L38.5229 62.9375C26.8036 75.8983 23.7721 92.799 23.7426 92.9671Z" fill="#CEF3FC"/>
<path d="M39.8738 51.7254L39.3872 51.3951C39.4816 51.2565 48.9538 37.5172 64.1499 30.8141L64.3888 31.3538C49.3519 37.9861 39.9682 51.5898 39.8738 51.7254Z" fill="#CEF3FC"/>
<path d="M225.401 114.622H224.811C224.811 93.4567 215.206 74.2735 215.109 74.0818L215.634 73.8164C215.731 74.0081 225.401 93.3122 225.401 114.622Z" fill="#CEF3FC"/>
<path d="M213.918 103.586C213.463 95.1553 210.718 88.06 210.691 87.9892L211.24 87.774C211.266 87.8447 214.044 95.0255 214.507 103.554L213.918 103.586Z" fill="#CEF3FC"/>
<path d="M5.24061 88.9565L4.6626 88.8326C4.69799 88.6616 8.42257 71.6842 21.4748 54.527L21.9437 54.8838C8.97109 71.9379 5.27599 88.7884 5.24061 88.9565Z" fill="black"/>
<path d="M23.6778 41.5101L23.2266 41.1327C23.262 41.0914 26.7211 36.9687 31.1328 32.8047L31.5368 33.2323C27.1487 37.3727 23.7102 41.4688 23.6778 41.5101Z" fill="black"/>
<path d="M38.2632 33.2117L37.8149 32.8283C37.8651 32.7693 42.9196 26.9303 52.5658 20.3482C61.4629 14.2762 76.202 6.308 95.9042 2.81345L96.0074 3.3944C76.4084 6.87126 61.746 14.7982 52.899 20.8347C43.3148 27.3727 38.3104 33.1527 38.2632 33.2117Z" fill="black"/>
<path d="M231.618 78.6999C226.654 58.4698 210.907 41.0058 210.748 40.8318L211.184 40.4337C211.343 40.6077 227.191 58.1867 232.19 78.5583L231.618 78.6999Z" fill="black"/>
<path d="M235.991 108.151C235.404 100.794 234 94.3532 232.927 90.2452L233.499 90.0948C234.578 94.2263 235.991 100.702 236.581 108.104L235.991 108.151Z" fill="black"/>
<path d="M239.19 135.96L238.615 135.828C239.122 133.634 239.565 131.254 239.93 128.756L240.514 128.842C240.146 131.354 239.698 133.749 239.19 135.96Z" fill="black"/>
<path d="M241.605 117.803L241.015 117.771C241.478 109.278 241.069 101.089 239.992 97.3935L240.558 97.2284C241.652 100.982 242.071 109.251 241.605 117.803Z" fill="black"/>
<path d="M232.325 144.672L231.765 144.492C232.8 141.272 233.679 136.789 234.377 131.177L234.961 131.251C234.26 136.898 233.372 141.413 232.325 144.672Z" fill="black"/>
<path d="M235.492 126.323L234.905 126.27C235.121 123.934 235.215 122.383 235.215 122.366L235.805 122.401C235.802 122.416 235.707 123.982 235.492 126.323Z" fill="black"/>
<path d="M175.775 15.1874C160.32 5.34955 134.433 1.97001 134.174 1.93757L134.248 1.35367C134.312 1.36252 140.868 2.20593 149.258 4.26138C157.008 6.16053 167.952 9.51058 176.094 14.692L175.775 15.1874Z" fill="black"/>
<path d="M162.882 4.59757C158.736 2.76919 149.102 0.595787 149.004 0.575144L149.134 9.15527e-05C149.231 0.0207345 158.922 2.20594 163.121 4.06086L162.882 4.59757Z" fill="black"/>
<path d="M37.4142 201.744C36.1638 200.756 34.9282 199.721 33.7427 198.671L34.1349 198.228C35.3145 199.272 36.5413 200.302 37.7828 201.281L37.4142 201.744Z" fill="black"/>
<path d="M27.4499 192.484C10.5492 174.053 7.31125 153.94 7.27881 153.74L7.86272 153.651C7.89221 153.852 11.1096 173.793 27.8834 192.086L27.4499 192.484Z" fill="black"/>
<path d="M32.0829 190.959C26.0315 185.969 20.3754 174.583 20.3193 174.468L20.8472 174.209C20.9032 174.321 26.5063 185.595 32.4574 190.505L32.0829 190.959Z" fill="black"/>
<path d="M90.6966 228.824C82.0944 227.179 73.5954 224.253 65.4355 220.128L65.701 219.6C73.8136 223.699 82.2595 226.607 90.8087 228.243L90.6966 228.824Z" fill="black"/>
<path d="M55.014 214.05C50.7852 211.219 48.4171 209.119 48.3936 209.099L48.7858 208.659C48.8093 208.68 51.1509 210.756 55.3414 213.56L55.014 214.05Z" fill="black"/>
<path d="M125.917 235.02L125.887 234.43C128.069 234.324 130.205 234.159 132.23 233.941L132.295 234.528C130.258 234.749 128.111 234.914 125.917 235.02Z" fill="black"/>
<path d="M118.164 235.156C104.663 235.008 93.3509 232.985 93.2358 232.965L93.342 232.384C93.4541 232.404 104.722 234.421 118.17 234.566L118.164 235.156Z" fill="black"/>
<path d="M53.6402 196.465C35.038 183.422 28.1845 162.731 28.1167 162.525L28.677 162.342C28.7448 162.549 35.5423 183.056 53.9794 195.981L53.6402 196.465Z" fill="#CEF3FC"/>
<path d="M94.3123 219.034C79.7119 216.468 65.0937 206.695 64.9492 206.595L65.2795 206.105C65.424 206.203 79.9419 215.908 94.4156 218.45L94.3123 219.034Z" fill="#CEF3FC"/>
<path d="M70.2928 201.307C66.406 200.089 61.7142 195.74 61.5166 195.557L61.9177 195.126C61.9648 195.17 66.7098 199.567 70.4668 200.747L70.2928 201.307Z" fill="#CEF3FC"/>
<path d="M140.148 21.2771C137.185 23.0819 124.295 30.6254 114.991 37.7207C113.51 38.8502 112.407 40.3984 111.826 42.1678C110.62 45.8511 109.538 49.9413 109.231 51.1268C109.16 51.4011 109.196 51.693 109.337 51.9378C110.207 53.4713 114.976 58.75 140.956 67.939L147.055 54.7482C147.055 54.7482 143.204 30.2037 142.021 22.0055C141.9 21.1827 140.954 20.7876 140.148 21.2771Z" fill="#00A1A4"/>
<path d="M198.827 168.798L166.845 172.555C161.658 173.165 157.122 176.341 154.778 181.009L140.463 209.771C139.853 210.986 138.496 211.632 137.169 211.34L132.082 210.219C128.514 209.432 124.949 211.549 123.931 215.058L123.135 217.81C122.693 219.334 123.389 220.956 124.798 221.688L148.281 233.858C149.838 234.663 151.752 234.124 152.657 232.623L176.258 194.188L208.877 192.133L198.827 168.798Z" fill="#8FC8E3"/>
<path d="M180.726 144.238L183.058 138.388L202.353 139.423L195.344 165.913L180.726 144.238Z" fill="#8FC8E3"/>
<path d="M178.29 130.098C178.29 130.098 180.41 124.61 180.378 121.628C180.337 117.662 180.767 109.591 178.24 109.971C176.701 110.201 176.241 113.934 176.052 115.539C175.978 116.173 175.733 116.78 175.309 117.258C174.704 117.939 173.846 118.202 173.395 115.114C172.661 110.083 172.82 100.402 169.897 102.174C168.417 103.073 169.21 111.864 168.373 111.475C167.535 111.086 167.638 97.8094 164.076 99.2573C162.899 99.7351 163.165 106.078 163.407 109.626C163.421 109.824 163.132 109.865 163.088 109.67C162.607 107.526 161.87 104.403 161.28 102.572C160.646 100.599 159.172 101.631 159.172 103.07C159.172 106.167 159.697 112.687 159.697 112.687L178.29 130.098Z" fill="#8FC8E3"/>
<path d="M227.819 147.712L233.127 156.854L220.741 196.666C219.579 200.703 214.961 203.221 210.815 202.531L194.872 200.762C192.826 200.42 192.092 201.469 192.808 203.416L199.688 234.985C200.856 238.161 199.045 241.652 195.775 242.528L172.053 248.869C169.756 249.482 167.462 247.878 167.252 245.51L165.887 237.362C165.831 236.739 165.654 234.242 167.066 233.233C169.131 231.759 172.375 229.694 172.375 229.694C173.469 229.107 173.581 227.353 173.259 226.155L164.247 191.11C162.776 185.627 166.188 181.378 171.788 180.446C178.865 179.266 190.661 176.612 190.661 176.612L195.713 143.657C196.376 141.042 198.792 139.252 201.49 139.381L209.24 139.75L227.819 147.712Z" fill="#00A1A4"/>
<path d="M224.774 139.048C226.385 132.225 222.16 125.387 215.336 123.776C208.512 122.165 201.675 126.39 200.063 133.214C198.452 140.037 202.678 146.875 209.501 148.486C216.325 150.097 223.163 145.872 224.774 139.048Z" fill="#00A1A4"/>
<path d="M97.128 135.958L139.316 97.7917C141.496 95.8188 144.683 95.9751 147.264 97.3818C152.481 100.228 161.428 105.315 169.408 113.961C176.108 121.221 187.24 132.749 188.556 142.507C188.706 143.625 188.317 144.746 187.535 145.556C174.672 158.883 148.505 183.427 145.58 185.922C138.656 191.829 120.699 178.494 110.469 166.603C106.196 161.64 91.7814 141 97.128 135.958Z" fill="#00A1A4"/>
<path d="M234.571 150.048C230.655 146.193 223.961 146.424 219.832 149.962L205.196 163.292C204.394 163.958 203.206 163.855 202.53 163.062L192.162 150.941C190.493 148.986 189.484 146.556 189.278 143.996L188.903 139.375C188.877 139.063 188.803 138.756 188.679 138.467L186.789 133.601C186.529 132.932 185.627 132.849 185.235 133.451C184.704 134.268 184.415 135.497 184.415 136.718C184.415 139.078 184.969 141.626 184.084 141.626C182.905 141.626 181.504 139.308 180.905 137.131C180.218 134.628 179.876 132.631 178.664 131.522C178.116 131.021 177.14 131.351 176.989 132.186C176.638 134.109 177.042 137.73 177.075 139.785C177.084 140.375 176.556 140.363 176.393 139.647C175.895 137.426 174.536 130.641 174.536 130.641C174.32 129.747 173.088 129.644 172.731 130.493C171.711 132.932 172.091 138.237 172.277 140.21C172.294 140.384 172.058 140.455 171.979 140.301C171.486 139.381 170.616 137.571 169.994 135.265C169.856 134.751 169.154 134.639 168.894 135.102C168.113 136.509 168.511 139.868 168.72 141.248C168.741 141.378 168.564 141.437 168.499 141.325C168.16 140.729 167.9 140.166 167.638 139.493C167.299 138.623 166.57 139.122 166.508 139.673C166.302 141.534 166.196 144.194 166.986 147.603C167.272 148.833 168.307 152.522 172.946 158.069L197.718 185.495C202.141 191.098 207.809 189.62 210.988 187.264C218.95 181.366 233.648 166.836 233.648 166.836C239.239 162.118 238.069 153.489 234.571 150.048Z" fill="#00A1A4"/>
<path d="M123.796 158.715C108.992 142.891 101.275 138.329 97.5058 137.907C96.6712 137.812 95.9487 138.464 95.9546 139.305C95.9989 147.013 106.857 162.41 110.467 166.609C118.706 176.191 131.968 186.71 140.431 187.344C141.08 187.391 141.605 186.828 141.531 186.185C141.018 181.661 137.444 173.304 123.796 158.715Z" fill="#F2BDBA"/>
<path d="M109.464 52.1531C110.635 54.9723 124.088 63.6453 140.95 67.942L141.452 66.8597C134.908 61.1239 123.595 55.3675 115.197 53.2C112.118 52.4067 110.44 52.0381 109.464 52.1531Z" fill="#F2BDBA"/>
<path d="M141.755 26.9598C140.21 25.6711 138.373 24.8159 136.3 24.4178L136.412 23.8398C138.585 24.2585 140.508 25.155 142.133 26.5057L141.755 26.9598Z" fill="black"/>
<path d="M164.303 124.778L158.06 119.549C157.081 118.73 155.81 118.349 154.542 118.502C149.485 119.11 136.261 120.888 131.829 123.324C130.186 124.226 126.63 128.166 126.63 128.166C125.341 129.502 125.335 131.617 126.618 132.961L134.734 141.929C135.297 142.551 136.247 142.622 136.895 142.091L143.383 136.777C144.085 136.202 144.156 135.152 143.536 134.486L142.23 133.088C141.708 132.599 141.95 131.723 142.652 131.572L163.749 127.043C164.799 126.81 165.132 125.471 164.303 124.778ZM154.58 133.923C153.566 133.203 152.304 133.141 151.348 133.932L131.749 150.119C130.57 151.092 130.496 153.46 131.496 154.619C132.271 155.518 133.834 157.311 134.592 158.231C135.993 159.933 138.293 159.986 139.423 158.957L144.713 154.135C145.194 153.699 145.937 153.728 146.379 154.203L147.5 155.406C148.293 156.238 149.603 156.279 150.446 155.501L156.288 150.104C157.394 149.081 157.403 147.335 156.303 146.303L155.763 145.795C155.259 145.324 155.265 144.518 155.775 144.055L158.464 141.605C159.467 140.691 159.824 138.641 158.559 137.447C158.562 137.447 155.893 134.858 154.58 133.923Z" fill="white"/>
<path d="M111.856 53.7308C115.574 56.6591 125.294 61.985 137.3 65.8806L137.695 65.052C132.735 60.8378 121.437 55.6034 112.097 53.2383C111.806 53.1646 111.617 53.545 111.856 53.7308Z" fill="black"/>
<path d="M98.4784 140.971C100.165 138.836 115.069 152.74 120.121 157.892C128.767 166.707 141.324 183.767 138.299 184.563C136.414 185.058 124.757 178.529 112.451 164.619C103.088 154.032 97.4374 142.289 98.4784 140.971Z" fill="black"/>
<path d="M198.057 17.9388L197.621 15.2906C197.258 13.0877 195.079 12.0084 192.973 12.7575C190.213 13.7365 186.633 14.8984 184.693 16.4083C183.923 17.007 183.504 17.9506 183.584 18.9209C184.294 27.5408 185.108 34.2586 185.495 37.2253C185.63 38.278 185.282 39.3367 184.545 40.1005L175.934 49.0566L184.666 53.5214L201.012 38.2898L198.057 17.9388Z" fill="#8FC8E3"/>
<path d="M140.954 67.942L147.2 54.4326C148.282 52.0941 150.564 50.5459 153.136 50.4014L166.079 49.6848C169.264 49.5078 172.363 48.5877 175.129 46.9982C177.394 45.6977 180.181 45.7095 182.434 47.0336C183.915 47.9036 185.784 47.7414 187.094 46.6296L191.768 42.6603C192.304 42.2032 192.593 41.5219 192.549 40.8201C192.301 37.0631 191.514 24.7599 191.414 18.7616C191.399 17.927 191.868 17.1574 192.617 16.7917C195.728 15.273 200.6 14.5328 204.333 15.1697C205.256 15.326 205.979 16.0839 206.038 17.0188C206.289 21.112 203.493 25.4971 203.493 25.4971L205.955 44.0079C206.498 48.0894 204.755 52.1383 201.42 54.5506L185.87 65.7922C184.69 66.6444 183.463 67.4347 182.195 68.1514C179.184 69.8588 175.964 71.1682 172.617 72.044L160.7 75.1611L140.954 67.942Z" fill="#00A1A4"/>
<path d="M146.312 55.8039L153.552 54.7069L159.179 60.6845L148.273 71.062L142.505 64.5448L146.312 55.8039Z" fill="#8FC8E3"/>
<path d="M164.023 52.4201C165.44 46.9995 162.195 41.4567 156.774 40.0397C151.353 38.6228 145.811 41.8684 144.394 47.289C142.977 52.7096 146.222 58.2525 151.643 59.6694C157.064 61.0863 162.606 57.8407 164.023 52.4201Z" fill="#00A1A4"/>
<path d="M128.234 46.1342L130.154 43.1705C130.478 42.6692 130.281 41.9968 129.735 41.752L128.933 41.3922C128.449 41.174 128.387 40.5134 128.824 40.2097L137.397 34.2675C137.83 33.9667 137.733 33.3002 137.231 33.1321L133.306 31.8375C132.84 31.6841 132.333 31.752 131.923 32.0233L123.483 37.6116C122.964 37.9537 122.545 38.4256 122.262 38.977L121.077 41.289C120.478 42.4568 120.991 43.8871 122.195 44.4061L127.028 46.4969C127.467 46.6886 127.978 46.5323 128.234 46.1342ZM138.37 44.8249L137.933 44.5536C137.544 44.3117 137.397 43.8193 137.585 43.4035L138.163 42.1354C138.502 41.3922 138.213 40.5134 137.5 40.1153L135.562 39.036C134.801 38.6143 133.843 38.8885 133.427 39.6523L127.574 50.3218C127.184 51.0325 127.4 51.9231 128.072 52.3772L130.145 53.7721C130.909 54.2852 131.95 54.0316 132.395 53.2265L134.073 50.1684C134.324 49.7143 134.902 49.5609 135.344 49.8293L135.574 49.9709C136.078 50.2805 136.739 50.0918 137.004 49.5639L138.735 46.1431C138.977 45.6742 138.815 45.1021 138.37 44.8249Z" fill="white"/>
<path d="M171.549 54.9399C168.712 52.4067 164.386 52.5571 161.729 55.276L153.831 63.3622C153.215 63.9933 152.307 64.2439 151.454 64.0198L139.714 60.9381C138.903 60.7258 138.169 60.2893 137.594 59.6789L134.223 56.1047C133.943 55.8069 133.439 55.8599 133.259 56.2256C133.073 56.6001 132.958 57.2135 133.15 58.2073C133.575 60.4191 132.292 60.4132 130.988 59.3692C130.316 58.8325 129.275 57.995 128.426 57.3079C127.78 56.7859 126.827 57.2519 126.824 58.0805C126.818 59.0891 126.963 60.2451 127.544 60.8909C126.358 64.4474 128.349 68.6704 131.502 70.3749C135.141 72.3419 154.754 78.402 154.754 78.402C156.659 78.9653 158.721 78.4374 160.121 77.0308L171.85 65.2525C174.728 62.3684 174.589 57.6559 171.549 54.9399Z" fill="#00A1A4"/>
<path d="M148.075 43.1321C146.819 44.0433 145.84 45.3556 145.259 46.9186C143.95 50.4426 145.185 54.2291 147.945 56.491C149.432 57.709 151.7 57.998 153.953 56.606C155.418 55.7007 156.527 54.2439 157.17 52.5158C158.296 49.4872 157.536 46.3465 155.524 44.0964C153.873 42.2533 150.169 41.6104 148.075 43.1321Z" fill="black"/>
<path d="M74.6364 157.361C73.5099 153.068 72.2566 147.535 71.596 145.657C71.5694 145.583 71.478 145.38 71.4102 145.335C70.8175 144.94 67.3376 143.274 63.3093 143.946C62.0619 144.156 57.7799 143.758 56.0666 145.058C55.5358 145.459 55.3352 146.137 55.2881 146.801C55.0462 150.378 54.4505 161.431 54.5508 165.161C54.5685 165.831 55.0285 166.432 55.6862 166.565C62.9436 168.043 71.3837 167.361 75.1436 164.522C75.5594 164.206 75.7924 163.708 75.7452 163.186C75.6509 162.186 75.3913 160.237 74.6364 157.361Z" fill="#00A1A4"/>
<path d="M33.1668 128.718L21.1762 124.97C20.5539 124.775 20.1647 124.156 20.2561 123.51L22.1081 110.555C22.2378 109.641 21.6038 108.794 20.6896 108.662L13.1991 107.517C12.8482 107.467 12.0933 107.73 12.0933 108.738C12.0933 109.231 12.2289 109.505 12.4796 109.806L13.8332 111.437C14.0868 111.74 14.1959 112.141 14.131 112.531L12.5297 122.439L18.0119 134.114L31.3325 135.539L33.1668 128.718Z" fill="#8FC8E3"/>
<path d="M9.47812 112.003L19.8999 128.396C20.18 128.839 20.6283 129.151 21.1384 129.266L23.4741 129.785C24.2496 129.956 25.0606 129.821 25.7359 129.408L26.6383 128.856C28.4284 127.759 30.6077 127.503 32.6041 128.154L46.9009 132.817L42.7221 145.848L28.6259 142.41C27.4021 142.112 26.1989 141.746 25.0164 141.313C23.2588 140.67 20.6872 139.688 19.1213 138.918C15.0842 136.934 13.7601 135.388 13.1024 134.156C11.0116 130.236 5.84497 121.354 5.19324 120.304C4.34688 118.942 2.48606 118.824 1.49815 118.567C0.887705 118.408 0.43946 118.14 0.191745 117.559L0.0649401 117.264C-0.0854586 116.913 0.0325048 116.506 0.345098 116.288L7.19265 111.504C7.95349 110.974 9.00628 111.201 9.47812 112.003Z" fill="#00A1A4"/>
<path d="M53.2766 141.738L65.8924 141.729C66.9216 141.723 67.9832 142.03 68.5259 142.652C68.8502 143.023 69.4283 143.825 69.7349 144.212C69.9473 144.483 69.8706 144.834 69.5639 144.76L68.0334 144.212L68.3047 145.15C68.4905 145.657 68.0275 145.887 67.6353 145.689L66.1106 144.97C66.149 145.394 65.7007 145.695 65.3203 145.498C64.6184 145.132 64.3501 144.896 63.3799 144.235C63.1381 144.073 62.852 143.991 62.56 144.005C59.959 144.135 58.1248 144.46 56.5382 145.108C55.3616 145.589 55.3321 146.813 55.3114 147.196C55.276 147.842 54.4031 149.777 54.4031 149.777L46.1902 148.087L44.7363 142.619L53.2766 141.738Z" fill="#8FC8E3"/>
<path d="M48.4809 143.194C52.0575 143.194 54.9569 140.174 54.9569 136.447C54.9569 132.721 52.0575 129.7 48.4809 129.7C44.9043 129.7 42.0049 132.721 42.0049 136.447C42.0049 140.174 44.9043 143.194 48.4809 143.194Z" fill="#00A1A4"/>
<path d="M51.2977 152.378C51.2977 152.378 47.3136 159.414 46.715 163.572C46.5233 164.911 47.4994 166.141 48.8441 166.3C50.0355 166.438 51.8787 166.506 54.6537 166.285C54.2526 165.032 55.1668 153.89 55.559 149.387C55.6121 148.783 54.866 148.458 54.4561 148.907L51.2977 152.378Z" fill="#00A1A4"/>
<path d="M64.8984 149.025C65.7507 150.8 68.968 157.574 69.6551 160.293C69.7407 160.629 69.4753 160.947 69.1302 160.927C65.9837 160.717 62.9462 161.177 61.6516 161.413C61.3213 161.472 61.0264 161.204 61.0529 160.871L61.9317 150.021C61.9465 149.83 62.0703 149.662 62.2473 149.591L64.2437 148.777C64.4944 148.674 64.7805 148.783 64.8984 149.025Z" fill="#00A1A4"/>
<path d="M68.9152 158.102C67.4584 154.291 64.6893 148.594 64.6893 148.594L64.0376 148.859L67.1281 160.874C67.9863 160.865 68.8828 160.918 69.7793 161.003C69.738 160.431 69.3989 159.373 68.9152 158.102Z" fill="white"/>
<path d="M69.7822 161.003C69.7793 160.953 67.4024 159.025 67.4024 159.025C66.9954 158.715 66.4469 158.674 66.0016 158.918L61.3569 161.463C62.4776 161.248 66.1284 160.649 69.7822 161.003Z" fill="#8FC8E3"/>
<path d="M46.2842 138.429C46.175 139.605 46.4375 140.711 46.9595 141.64C47.3104 142.262 47.971 142.664 48.6876 142.664C48.6905 142.664 48.6964 142.664 48.6994 142.664C51.9256 142.664 54.5413 139.939 54.5413 136.577C54.5413 136.571 54.5413 136.562 54.5413 136.556C54.5354 135.138 53.521 133.932 52.1792 133.707C51.7693 133.64 51.3417 133.622 50.9023 133.66C48.4782 133.881 46.5171 135.907 46.2842 138.429Z" fill="black"/>
<path d="M67.1779 149.886L65.786 150.048C65.6739 150.06 65.6179 149.918 65.7063 149.85L66.8741 148.968C67.3312 148.623 67.057 147.898 66.4878 147.942C65.2227 148.04 63.5919 148.175 62.4271 148.299C62.2354 148.32 62.1499 148.06 62.3179 147.963C62.8399 147.665 63.1142 147.521 63.6568 147.217C64.4324 146.78 63.6686 146.167 62.7809 146.199C61.1207 146.264 59.4663 147.264 58.207 147.264C55.9304 147.264 49.6284 146.957 49.6284 146.957C49.1301 146.94 48.6671 146.686 48.3869 146.273L43.2675 138.697C41.8342 136.804 39.13 136.453 37.2633 137.919C35.491 139.308 35.1105 141.841 36.3992 143.69L43.8956 153.295C44.5886 154.182 45.6414 154.719 46.7679 154.757L63.0906 154.51C65.0369 154.513 66.4053 152.749 66.5792 151.832C67.0806 151.493 67.4374 151.121 67.694 150.785C67.9918 150.39 67.6733 149.827 67.1779 149.886Z" fill="#00A1A4"/>
<path d="M47.0923 80.1007C47.0923 80.1007 48.4783 85.3086 51.9729 92.3685C56.9272 102.374 59.3453 106.382 61.8933 110.679C64.9956 115.91 74.4678 121.216 92.7427 109.894C111.678 98.1662 108.791 90.4399 107.535 87.7504C106.792 86.1579 100.761 74.8869 95.7566 66.3318C93.8043 62.9936 91.9612 60.1419 90.7344 58.3017C89.7141 56.7712 88.0744 55.7774 86.2461 55.571C81.2623 55.0077 70.7049 55.0637 59.8496 62.9287C44.8835 73.7751 47.0923 80.1007 47.0923 80.1007Z" fill="#00A1A4"/>
<path d="M108.296 93.4773C108.794 90.9618 107.709 88.3903 105.595 86.9335C100.234 83.2354 89.7321 83.0762 76.4174 91.4867C61.7875 100.729 61.4484 108.55 63.6247 112.882C67.889 117.09 77.0839 119.594 92.7401 109.894C103.961 102.946 107.518 97.4024 108.296 93.4773Z" fill="#F2BDBA"/>
<path d="M66.3639 112.596C64.5444 109.992 64.509 101.835 78.1658 93.0497C91.9317 84.1938 104.008 86.7123 105.783 91.4867C107.558 96.2611 97.6675 105.005 86.65 110.602C76.6824 115.668 68.381 115.483 66.3639 112.596Z" fill="black"/>
<path d="M54.5386 164.392C53.3384 164.389 52.0733 164.454 50.8082 164.554C47.9594 164.781 47.5761 165.678 47.8444 165.952C48.0951 166.208 48.4755 166.347 48.8441 166.388C50.0355 166.527 52.495 166.606 55.1137 166.3C54.5386 165.666 54.5416 165.359 54.5386 164.392Z" fill="black"/>
<path d="M74.5707 146.834C73.7184 145.781 73.2319 145.91 71.6748 145.887C72.3354 148.169 73.4855 152.979 74.6356 157.364C75.7857 161.747 75.7916 163.976 75.7916 163.976C77.2366 163.784 78.4014 163.569 81.2295 163.094C83.5386 162.705 83.745 160.794 82.5507 159.025L74.5707 146.834Z" fill="#00A1A4"/>
<path d="M74.6631 164.861C74.8283 164.442 74.557 164.023 73.864 163.681C72.4868 162.997 69.7914 162.46 64.5393 162.755C59.697 163.026 57.2405 164.224 56.0049 165.279C55.3443 165.846 55.3885 166.282 55.9724 166.636C63.2506 168.402 70.7793 167.417 74.6631 164.861Z" fill="#F2BDBA"/>
<path d="M81.5306 163.147C82.1145 162.997 82.2059 162.372 81.9022 162.153C81.7724 162.062 81.6191 161.968 81.4363 161.873C80.0001 161.136 77.7058 161.145 75.5117 161.407C75.7889 163.112 75.8391 163.522 75.5265 164.1C77.3136 163.976 81.3566 163.192 81.5306 163.147Z" fill="black"/>
<path d="M64.5321 78.3756C63.6739 76.2169 63.6474 73.8106 64.6589 72.2328C64.8948 71.8642 65.3283 71.2626 65.1101 70.8852L63.2109 68.1308C62.8099 67.4348 61.763 67.8713 61.2823 68.5171C58.9142 71.7109 58.0295 75.8719 59.7989 80.3131C62.397 86.8451 67.2215 88.756 72.1935 87.5411C72.9986 87.3435 73.3908 86.4322 72.975 85.7156L71.5241 83.3122C71.2056 82.7607 70.5952 82.457 69.9582 82.5071C67.8113 82.6811 65.6881 81.2774 64.5321 78.3756ZM78.6961 70.6699C74.9361 64.7159 68.9614 63.8076 65.0481 65.2939C64.364 65.5534 64.0543 66.3466 64.42 66.9807L66.5551 69.8736C66.8087 70.3101 67.31 70.5224 67.8025 70.4281C69.8904 70.024 72.456 70.8321 74.1458 73.3859C75.4876 75.4148 75.4846 78.5909 73.3554 80.6316C72.8895 81.0798 72.9367 81.8495 73.2611 82.4098L74.6235 84.7602C75.1632 85.6891 76.3693 85.7776 77.1921 85.0905C81.0494 81.8701 81.3325 74.8457 78.6961 70.6699Z" fill="white"/>
<path d="M162.929 70.254C162.725 70.254 162.519 70.2009 162.33 70.0918C160.885 69.2513 158.278 67.6087 157.055 66.0841C156.71 65.6535 156.718 65.0254 157.081 64.5889L160.912 59.9708C161.316 59.4813 162.032 59.3958 162.543 59.7732C163.746 60.6668 165.937 62.3182 167.102 63.3504C167.571 63.7662 167.644 64.4562 167.273 64.9576C165.934 66.7683 164.598 68.7264 163.923 69.729C163.69 70.0682 163.312 70.254 162.929 70.254ZM161.829 60.1271C161.655 60.1271 161.481 60.2008 161.363 60.3453L157.532 64.9635C157.349 65.1846 157.341 65.4972 157.515 65.7125C158.724 67.2194 161.493 68.921 162.628 69.5816C162.902 69.7408 163.253 69.6612 163.43 69.3988C164.111 68.3902 165.45 66.4262 166.795 64.6037C166.981 64.3501 166.945 63.9992 166.707 63.7898C165.559 62.7724 163.383 61.1327 162.186 60.2451C162.08 60.1655 161.953 60.1271 161.829 60.1271Z" fill="black"/>
<path d="M218.668 175.238C218.594 175.238 218.52 175.235 218.444 175.226C217.83 175.167 217.279 174.869 216.893 174.392L210.537 166.503C209.783 165.565 209.892 164.2 210.782 163.392L217.807 157.043C218.27 156.624 218.865 156.418 219.485 156.462C220.107 156.506 220.667 156.792 221.068 157.267L227.792 165.279C228.597 166.238 228.47 167.671 227.515 168.476L220.125 174.698C219.712 175.052 219.202 175.238 218.668 175.238ZM211.18 163.831C210.52 164.43 210.44 165.439 210.998 166.135L217.353 174.023C217.639 174.377 218.046 174.598 218.5 174.642C218.954 174.687 219.396 174.548 219.744 174.256L227.134 168.034C227.842 167.438 227.934 166.376 227.341 165.666L220.617 157.653C220.322 157.299 219.903 157.087 219.443 157.058C218.983 157.028 218.541 157.178 218.202 157.488L211.18 163.831Z" fill="black"/>
<path d="M183.952 161.404L183.492 161.036L186.804 156.881C186.998 156.636 186.931 156.379 186.801 156.22C186.671 156.061 186.432 155.943 186.152 156.084L182.41 158.01C181.92 158.261 181.366 158.14 181.024 157.712C180.682 157.285 180.693 156.716 181.047 156.297L184.377 152.366C184.583 152.121 184.515 151.859 184.386 151.696C184.253 151.534 184.014 151.41 183.731 151.561L174.085 156.471L173.816 155.946L183.46 151.036C183.943 150.779 184.504 150.897 184.846 151.325C185.191 151.755 185.182 152.324 184.828 152.746L181.499 156.677C181.292 156.919 181.357 157.181 181.487 157.344C181.616 157.506 181.855 157.63 182.138 157.485L185.878 155.56C186.358 155.312 186.91 155.427 187.252 155.843C187.594 156.258 187.597 156.825 187.261 157.246L183.952 161.404Z" fill="black"/>
<path d="M200.008 167.519L195.703 179.126L196.256 179.331L200.561 167.724L200.008 167.519Z" fill="black"/>
<path d="M206.76 170.041L206.204 170.236L211.169 184.343L211.725 184.147L206.76 170.041Z" fill="black"/>
<path d="M206.555 179.806L205.972 179.892L206.996 186.827L207.579 186.741L206.555 179.806Z" fill="black"/>
<path d="M199.919 177.133L198.858 182.689L199.438 182.799L200.498 177.243L199.919 177.133Z" fill="black"/>
<path d="M152.716 65.7516L152.198 66.0329L157.549 75.8924L158.067 75.6111L152.716 65.7516Z" fill="black"/>
<path d="M152.749 70.9912L152.183 71.1541L153.835 76.902L154.402 76.7391L152.749 70.9912Z" fill="black"/>
<path d="M150.083 66.6864L149.571 75.3241L150.16 75.3589L150.671 66.7213L150.083 66.6864Z" fill="black"/>
<path d="M134.495 70.0358L133.926 69.8824L135.442 64.2144C135.536 63.8576 135.857 63.6364 136.226 63.6748C136.592 63.7131 136.86 63.9992 136.881 64.3648L137.049 67.7591C137.055 67.8535 137.12 67.883 137.161 67.8918C137.202 67.9007 137.273 67.9036 137.317 67.8181L139.505 63.5008L140.03 63.7662L137.845 68.0835C137.692 68.3843 137.37 68.5377 137.04 68.4669C136.71 68.3961 136.48 68.1248 136.462 67.7886L136.294 64.3943C136.288 64.2882 136.211 64.2646 136.167 64.2616C136.123 64.2557 136.043 64.2646 136.017 64.3648L134.495 70.0358Z" fill="black"/>
<path d="M195.124 40.3564L195.031 40.9388L203.662 42.3146L203.755 41.7322L195.124 40.3564Z" fill="black"/>
<path d="M195.716 42.9983L195.501 43.5477L203.605 46.7125L203.82 46.1631L195.716 42.9983Z" fill="black"/>
<path d="M195.831 45.2759L195.384 45.6606L201.114 52.3197L201.561 51.935L195.831 45.2759Z" fill="black"/>
<path d="M187.049 203.386L187.016 203.383L170.154 201.455L170.222 200.868L187.066 202.794C187.473 202.788 187.694 202.507 187.768 202.248C187.842 201.985 187.792 201.626 187.432 201.413L168.027 192.254C167.423 191.894 167.196 191.219 167.45 190.594C167.703 189.968 168.34 189.641 168.995 189.8L184.386 193.224C184.828 193.33 185.12 193.071 185.238 192.814C185.353 192.563 185.365 192.183 185.023 191.918L172.13 185.545L172.392 185.017L185.353 191.428C185.96 191.873 186.002 192.569 185.775 193.062C185.547 193.554 184.99 193.973 184.256 193.799L168.865 190.375C168.402 190.263 168.11 190.543 167.998 190.818C167.886 191.089 167.901 191.493 168.305 191.735L187.709 200.894C188.264 201.225 188.499 201.811 188.337 202.407C188.169 203.003 187.665 203.386 187.049 203.386Z" fill="black"/>
<path d="M41.8227 147.742C41.7608 147.742 41.6989 147.739 41.637 147.73C41.2683 147.677 40.941 147.467 40.7375 147.155L39.1922 144.787C38.8059 144.197 38.9681 143.395 39.555 143.003L41.6163 141.62C42.2061 141.224 43.0082 141.381 43.4064 141.965L44.8366 144.058C45.2111 144.607 45.1109 145.344 44.6066 145.775L42.6632 147.432C42.4273 147.636 42.1294 147.742 41.8227 147.742ZM42.3388 141.994C42.2032 141.994 42.0675 142.032 41.9466 142.112L39.8853 143.495C39.5668 143.71 39.4783 144.144 39.6877 144.468L41.2329 146.836C41.345 147.007 41.522 147.119 41.7225 147.149C41.926 147.178 42.1265 147.119 42.2798 146.987L44.2232 145.329C44.4975 145.094 44.5535 144.692 44.3471 144.395L42.9168 142.301C42.7871 142.1 42.5629 141.994 42.3388 141.994Z" fill="black"/>
<path d="M47.4132 147.966L44.1846 151.35L44.6113 151.757L47.8399 148.373L47.4132 147.966Z" fill="black"/>
<path d="M46.4289 151.067L45.5684 152.807L46.097 153.068L46.9576 151.329L46.4289 151.067Z" fill="black"/>
<path d="M48.7891 147.903L47.5854 153.646L48.1627 153.767L49.3663 148.024L48.7891 147.903Z" fill="black"/>
<path d="M55.5034 152.54C55.4887 152.54 55.4769 152.54 55.4621 152.54C55.0699 152.522 54.7367 152.271 54.6128 151.9L54.0879 150.313L54.6482 150.127L55.1731 151.714C55.2439 151.923 55.4297 151.95 55.4857 151.95C55.5417 151.95 55.7305 151.944 55.8189 151.741L56.3291 150.546C56.453 150.257 56.7095 150.051 57.0192 149.995C57.3288 149.939 57.6414 150.036 57.8596 150.26L59.402 151.841C59.5376 151.979 59.7028 151.965 59.8148 151.903C59.9269 151.841 60.0301 151.708 59.9859 151.519L59.2693 148.452L59.8443 148.32L60.5609 151.387C60.6583 151.8 60.4725 152.215 60.1009 152.419C59.7264 152.622 59.2781 152.554 58.9803 152.251L57.4379 150.67C57.3554 150.585 57.2404 150.549 57.1283 150.573C57.0133 150.593 56.9189 150.67 56.8747 150.776L56.3645 151.971C56.2141 152.321 55.8809 152.54 55.5034 152.54Z" fill="black"/>
<path d="M17.4869 128.896L13.2637 130.346L13.4551 130.904L17.6783 129.454L17.4869 128.896Z" fill="black"/>
<path d="M16.3189 130.777L14.0483 132.668L14.4258 133.121L16.6963 131.23L16.3189 130.777Z" fill="black"/>
<path d="M18.0018 130.891L16.2368 135.432L16.7866 135.645L18.5516 131.104L18.0018 130.891Z" fill="black"/>
<path d="M2.18237 117.659C2.1175 117.659 2.04968 117.653 1.9848 117.638L1.47461 117.526L1.60141 116.951L2.1116 117.063C2.20597 117.084 2.30328 117.063 2.37995 117.01C2.45958 116.954 2.50972 116.872 2.52152 116.774L2.5746 116.361C2.60998 116.099 2.75448 115.863 2.9727 115.713C3.19093 115.562 3.46518 115.515 3.72174 115.577L4.73619 115.828C4.84531 115.854 4.95738 115.828 5.03995 115.754C5.12547 115.68 5.16676 115.574 5.15792 115.462L5.10777 114.896C5.08123 114.595 5.19624 114.306 5.42332 114.108C5.65039 113.911 5.95118 113.834 6.24608 113.905L6.9096 114.061C7.01871 114.088 7.12784 114.058 7.21336 113.985C7.29593 113.911 7.34017 113.805 7.32837 113.693C7.29593 113.368 7.43158 113.059 7.69109 112.861C7.9506 112.663 8.28678 112.616 8.59053 112.734L9.35138 113.026L9.13906 113.578L8.37821 113.286C8.26615 113.241 8.14524 113.259 8.04793 113.333C7.95061 113.407 7.90342 113.519 7.91522 113.64C7.94471 113.943 7.8297 114.229 7.60263 114.43C7.37555 114.63 7.07181 114.707 6.77691 114.636L6.11339 114.48C6.00427 114.456 5.89515 114.483 5.80963 114.554C5.72706 114.627 5.68282 114.731 5.69462 114.843L5.74476 115.409C5.7713 115.71 5.65334 116.005 5.42332 116.199C5.19329 116.394 4.88365 116.471 4.5917 116.397L3.57724 116.146C3.48287 116.123 3.38556 116.14 3.30299 116.196C3.22042 116.252 3.17028 116.335 3.15554 116.435L3.10246 116.848C3.06707 117.105 2.92847 117.338 2.71319 117.488C2.55984 117.6 2.37406 117.659 2.18237 117.659Z" fill="black"/>
<path d="M194.701 21.4924C194.693 21.4924 194.687 21.4924 194.678 21.4924C194.377 21.4836 194.118 21.3066 194 21.0324L193.522 19.9235C193.481 19.8292 193.398 19.8174 193.363 19.8174C193.363 19.8174 193.363 19.8174 193.36 19.8174C193.324 19.8174 193.239 19.8292 193.2 19.9265L192.667 21.2594L192.118 21.0412L192.652 19.7083C192.767 19.4193 193.041 19.2335 193.351 19.2276C193.354 19.2276 193.357 19.2276 193.36 19.2276C193.666 19.2276 193.941 19.4075 194.062 19.6876L194.539 20.7964C194.578 20.8879 194.66 20.8997 194.696 20.9026C194.728 20.9026 194.811 20.8967 194.855 20.8053L195.2 20.1152C195.315 19.8852 195.536 19.7289 195.79 19.6994C196.046 19.667 196.297 19.7643 196.462 19.9619L197.031 20.6254C197.093 20.6962 197.17 20.6873 197.199 20.6814C197.229 20.6755 197.303 20.6519 197.329 20.5605L197.674 19.4075C197.751 19.1539 197.948 18.9592 198.208 18.8884C198.464 18.8177 198.736 18.8855 198.927 19.0683L200.042 20.1123C200.107 20.1742 200.184 20.1624 200.213 20.1506C200.243 20.1418 200.31 20.1123 200.331 20.0238L200.549 19.0801C200.611 18.8177 200.797 18.6112 201.054 18.5257C201.31 18.4402 201.584 18.4962 201.788 18.6702L202.587 19.3514C202.658 19.4104 202.732 19.3927 202.761 19.3809C202.791 19.3691 202.858 19.3367 202.873 19.2453L203.024 18.3104C203.068 18.0332 203.262 17.8032 203.528 17.7118C203.796 17.6204 204.088 17.6823 204.295 17.874C204.371 17.9448 204.451 17.9182 204.483 17.9064C204.516 17.8917 204.587 17.8504 204.587 17.7472V17.0748H205.176V17.7472C205.176 18.0568 205.002 18.3222 204.719 18.4461C204.436 18.57 204.121 18.5169 203.893 18.3075C203.826 18.2426 203.749 18.2603 203.719 18.2721C203.69 18.281 203.619 18.3163 203.604 18.4078L203.454 19.3426C203.41 19.6168 203.227 19.841 202.965 19.9383C202.702 20.0356 202.419 19.9855 202.207 19.8026L201.407 19.1214C201.34 19.0654 201.269 19.0801 201.239 19.089C201.213 19.0978 201.145 19.1303 201.124 19.2158L200.906 20.1595C200.844 20.4278 200.65 20.6372 200.384 20.7198C200.119 20.7994 199.842 20.7345 199.638 20.5458L198.523 19.5018C198.458 19.4429 198.388 19.4547 198.358 19.4606C198.329 19.4694 198.261 19.4959 198.237 19.5785L197.892 20.7316C197.813 20.9999 197.592 21.2005 197.32 21.2594C197.046 21.3184 196.763 21.2211 196.583 21.0088L196.014 20.3453C195.958 20.2804 195.89 20.2833 195.86 20.2863C195.834 20.2892 195.763 20.3069 195.725 20.3806L195.38 21.0707C195.253 21.3302 194.993 21.4924 194.701 21.4924Z" fill="black"/>
<path d="M193.838 17.0092L193.541 17.5187L196.356 19.1604L196.653 18.6509L193.838 17.0092Z" fill="black"/>
<path d="M196.489 15.9244L196.202 16.44L199.86 18.472L200.147 17.9564L196.489 15.9244Z" fill="black"/>
<path d="M199.833 15.562L199.58 16.0949L202.591 17.5231L202.844 16.9902L199.833 15.562Z" fill="black"/>
<path d="M169.39 245.516L168.848 245.286L169.75 243.162C169.968 242.649 170.399 242.269 170.936 242.115C171.472 241.962 172.038 242.059 172.496 242.381L173.433 243.041C173.761 243.271 174.165 243.333 174.545 243.204C174.926 243.077 175.212 242.785 175.335 242.404L175.498 241.9C175.68 241.325 176.138 240.88 176.713 240.706C177.288 240.532 177.916 240.653 178.385 241.027L179.337 241.785C179.665 242.045 180.08 242.124 180.479 242C180.877 241.879 181.177 241.579 181.301 241.181L181.546 240.393C181.726 239.815 182.159 239.376 182.737 239.193C183.315 239.007 183.923 239.113 184.407 239.479L185.501 240.308C185.831 240.558 186.247 240.629 186.642 240.499C187.037 240.37 187.329 240.066 187.447 239.668L187.857 238.273C188.037 237.662 188.509 237.196 189.122 237.023C189.732 236.851 190.381 237.005 190.853 237.432L191.732 238.232C192.059 238.529 192.51 238.633 192.935 238.5C193.36 238.37 193.675 238.034 193.781 237.603C193.938 236.961 194.41 236.462 195.047 236.276C195.681 236.091 196.347 236.25 196.828 236.707L198.196 238.007L197.789 238.435L196.421 237.135C196.093 236.825 195.642 236.716 195.212 236.843C194.781 236.969 194.46 237.306 194.353 237.745C194.2 238.382 193.734 238.874 193.109 239.066C192.484 239.258 191.82 239.11 191.337 238.668L190.458 237.869C190.139 237.577 189.7 237.474 189.284 237.592C188.868 237.71 188.547 238.025 188.426 238.438L188.016 239.833C187.845 240.411 187.403 240.868 186.831 241.057C186.256 241.245 185.627 241.139 185.147 240.777L184.053 239.948C183.725 239.7 183.312 239.629 182.92 239.753C182.528 239.877 182.233 240.175 182.112 240.567L181.867 241.355C181.688 241.933 181.233 242.384 180.655 242.564C180.077 242.741 179.449 242.623 178.974 242.245L178.022 241.487C177.698 241.228 177.285 241.148 176.887 241.269C176.489 241.39 176.188 241.685 176.061 242.08L175.899 242.584C175.719 243.148 175.294 243.575 174.734 243.764C174.174 243.953 173.578 243.864 173.094 243.522L172.156 242.862C171.847 242.643 171.463 242.578 171.098 242.682C170.735 242.785 170.44 243.044 170.293 243.392L169.39 245.516Z" fill="black"/>
<path d="M150.118 230.903H149.529V228.075C149.529 227.686 149.328 227.338 148.995 227.14C148.662 226.943 148.258 226.937 147.918 227.123L146.671 227.81C146.146 228.099 145.524 228.09 145.011 227.783C144.495 227.48 144.188 226.94 144.188 226.341V225.368C144.188 224.999 144.011 224.669 143.704 224.463C143.398 224.256 143.023 224.221 142.684 224.365L141.083 225.035C140.564 225.253 139.974 225.197 139.508 224.884C139.039 224.572 138.759 224.05 138.759 223.49V223.168C138.759 222.8 138.585 222.472 138.278 222.266C137.971 222.059 137.6 222.021 137.261 222.163L135.727 222.791C135.208 223.003 134.621 222.944 134.158 222.631C133.692 222.319 133.415 221.8 133.415 221.24C133.415 220.868 133.238 220.538 132.929 220.334C132.619 220.128 132.245 220.095 131.905 220.24L130.714 220.744C130.254 220.939 129.738 220.918 129.296 220.691C128.853 220.464 128.535 220.057 128.426 219.57L128.272 218.898C128.199 218.58 127.992 218.314 127.703 218.17C127.411 218.022 127.075 218.013 126.777 218.146L124.66 219.075L124.424 218.535L126.541 217.606C127.001 217.406 127.523 217.418 127.971 217.645C128.42 217.872 128.741 218.282 128.853 218.771L129.007 219.444C129.077 219.759 129.284 220.022 129.57 220.169C129.856 220.316 130.192 220.328 130.49 220.204L131.681 219.7C132.2 219.479 132.79 219.535 133.262 219.848C133.731 220.16 134.011 220.682 134.011 221.245C134.011 221.614 134.185 221.941 134.492 222.148C134.798 222.354 135.167 222.39 135.509 222.251L137.043 221.623C137.562 221.411 138.148 221.47 138.611 221.782C139.077 222.095 139.355 222.614 139.355 223.174V223.495C139.355 223.864 139.532 224.194 139.838 224.401C140.145 224.607 140.519 224.643 140.859 224.498L142.46 223.829C142.979 223.613 143.569 223.669 144.035 223.979C144.504 224.292 144.781 224.814 144.781 225.374V226.347C144.781 226.736 144.981 227.084 145.315 227.282C145.648 227.48 146.052 227.485 146.391 227.3L147.638 226.613C148.163 226.324 148.785 226.332 149.299 226.639C149.815 226.943 150.121 227.483 150.121 228.081V230.903H150.118Z" fill="black"/>
<path d="M216.434 140.493C213.709 144.917 206.454 147.234 202.921 142.481C198.996 137.196 201.795 125.957 209.963 125.486C211.827 125.376 213.685 125.987 215.154 127.202C218.881 130.29 219.489 135.533 216.434 140.493Z" fill="black"/>
<path d="M207.117 134.636C206.114 137.736 204.964 141.163 203.522 139.405C202.625 138.311 202.08 135.68 202.72 133.18C203.224 131.21 204.634 129.319 206.034 128.329C206.76 127.815 207.494 127.697 208.081 128.01C209.579 128.803 208.24 131.16 207.117 134.636Z" fill="#74BAAB"/>
<path d="M150.484 48.5524C148.971 50.1714 147.27 51.9437 146.571 50.0976C146.137 48.9505 146.341 46.9304 147.432 45.5473C148.29 44.4562 149.829 43.8369 151.147 43.8163C151.832 43.8074 152.424 44.0669 152.808 44.5476C153.775 45.7715 152.18 46.7358 150.484 48.5524Z" fill="#74BAAB"/>
<path d="M51.6425 137.456C51.6631 136.397 51.7044 135.223 52.5154 135.654C53.0197 135.922 53.9899 138.048 52.8781 139.349C52.6687 139.594 52.3591 139.67 52.0789 139.62C51.3682 139.496 51.6189 138.641 51.6425 137.456Z" fill="#74BAAB"/>
<path d="M72.8609 164.967C72.9877 164.693 72.7606 164.424 72.1944 164.215C71.065 163.799 68.868 163.501 64.6067 163.796C60.6786 164.067 58.7058 164.896 57.7178 165.607C57.19 165.987 57.2313 166.273 57.7149 166.488C63.6542 167.497 69.7497 166.707 72.8609 164.967Z" fill="black"/>
<path d="M176.094 139.712C175.601 137.515 174.248 130.764 174.233 130.697L174.811 130.582C174.826 130.649 176.176 137.391 176.669 139.582L176.094 139.712Z" fill="black"/>
<path d="M182.071 140.428C181.464 139.546 180.933 138.373 180.614 137.211C180.502 136.804 180.399 136.409 180.302 136.028C179.803 134.12 179.411 132.61 178.458 131.74L178.857 131.304C179.939 132.292 180.352 133.876 180.874 135.878C180.971 136.255 181.074 136.648 181.186 137.052C181.49 138.155 181.988 139.263 182.561 140.092L182.071 140.428Z" fill="black"/>
<path d="M184.869 140.564L184.279 140.546C184.294 140.083 184.25 139.479 184.206 138.839C184.162 138.181 184.108 137.438 184.108 136.718C184.108 135.406 184.433 134.126 184.975 133.289L185.471 133.61C184.987 134.356 184.698 135.515 184.698 136.718C184.698 137.414 184.745 138.119 184.793 138.797C184.84 139.452 184.884 140.071 184.869 140.564Z" fill="black"/>
<path d="M203.976 164.02C203.351 164.02 202.734 163.758 202.301 163.253L197.391 157.515L197.839 157.131L202.749 162.87C203.318 163.536 204.33 163.625 205.005 163.065L219.632 149.744C220.434 149.057 221.336 148.482 222.318 148.034L222.563 148.57C221.631 148.995 220.776 149.541 220.021 150.186L205.391 163.51C204.978 163.852 204.474 164.02 203.976 164.02Z" fill="black"/>
<path d="M204.949 189.673C202.428 189.673 199.771 188.585 197.476 185.678L191.826 179.423L192.263 179.028L197.928 185.297C202.074 190.549 207.456 189.508 210.803 187.028C213.481 185.044 217.208 181.87 221.882 177.594L222.28 178.031C217.592 182.319 213.846 185.507 211.154 187.503C209.449 188.762 207.255 189.673 204.949 189.673Z" fill="black"/>
<path d="M168.231 141.469C167.904 140.894 167.632 140.319 167.352 139.6L167.904 139.387C168.175 140.086 168.425 140.623 168.744 141.177L168.231 141.469Z" fill="black"/>
<path d="M171.705 140.437C171.227 139.544 170.331 137.692 169.694 135.338L170.263 135.185C170.882 137.482 171.758 139.287 172.224 140.157L171.705 140.437Z" fill="black"/>
<path d="M212.41 149.095C207.642 149.095 203.265 146.491 200.989 142.298L201.508 142.015C203.681 146.017 207.86 148.505 212.41 148.505V149.095Z" fill="black"/>
<path d="M132.463 60.3483C131.994 60.3483 131.419 60.0947 130.809 59.6052C130.136 59.0684 129.095 58.228 128.243 57.5438L128.615 57.0838C129.467 57.7709 130.505 58.6084 131.177 59.1451C131.806 59.6494 132.416 59.8735 132.696 59.7025C132.95 59.5491 133.009 59.0272 132.864 58.2663C132.69 57.358 132.734 56.6296 133 56.0959L133.528 56.3583C133.386 56.6444 133.256 57.187 133.442 58.1543C133.646 59.2159 133.498 59.906 133 60.2068C132.844 60.3011 132.661 60.3483 132.463 60.3483Z" fill="black"/>
<path d="M154.043 63.5686L153.622 63.1558L161.519 55.0696C164.291 52.2297 168.785 52.0764 171.746 54.7187L171.354 55.1581C168.629 52.7252 164.495 52.8667 161.944 55.4795L154.043 63.5686Z" fill="black"/>
<path d="M171.64 65.0479L163.627 73.0995L164.045 73.5155L172.058 65.4639L171.64 65.0479Z" fill="black"/>
<path d="M44.8246 141.528L43.0257 138.865C42.3917 138.028 41.451 137.482 40.3923 137.344C39.3336 137.208 38.2867 137.494 37.4462 138.152L37.0835 137.689C38.0508 136.931 39.251 136.6 40.469 136.76C41.6869 136.919 42.7633 137.544 43.5064 138.523L45.3141 141.198L44.8246 141.528Z" fill="black"/>
<path d="M54.6711 155.799L54.3218 162.667L54.9108 162.697L55.2602 155.829L54.6711 155.799Z" fill="black"/>
<path d="M72.4206 147.378L71.8486 147.523L74.7316 158.961L75.3035 158.817L72.4206 147.378Z" fill="black"/>
</svg>
