<svg width="16" height="14" viewBox="0 0 16 14" fill="none" xmlns="http://www.w3.org/2000/svg">
<path d="M8 13.875C8 13.875 0.1875 9.50001 0.1875 4.18751C0.187659 3.24855 0.51301 2.33863 1.10824 1.61244C1.70347 0.886255 2.53183 0.388633 3.45249 0.204179C4.37315 0.0197245 5.32928 0.159824 6.15832 0.600657C6.98736 1.04149 7.63814 1.75585 8.00001 2.62227L7.99999 2.62228C8.36186 1.75585 9.01263 1.04149 9.84167 0.60066C10.6707 0.159825 11.6268 0.0197252 12.5475 0.204179C13.4682 0.388633 14.2965 0.886254 14.8918 1.61244C15.487 2.33862 15.8123 3.24855 15.8125 4.18751C15.8125 9.50001 8 13.875 8 13.875Z" fill="#FF2D1B"/>
</svg>
