<svg width="102" height="96" viewBox="0 0 102 96" fill="none" xmlns="http://www.w3.org/2000/svg">
<path d="M96.8583 49.1005C90.4484 45.8474 84.0005 42.6678 77.5703 39.4527C68.6806 35.0078 59.8238 30.4945 50.8784 26.1663C49.0756 25.294 48.9158 24.0237 48.6851 22.4035C48.4468 20.7122 49.5954 20.5753 50.64 20.086C52.7978 19.0743 54.5727 17.6569 55.1381 15.1619C57.3111 11.9519 57.055 7.98875 54.4561 4.64687C51.8546 1.30245 47.3286 -0.104788 43.3655 1.19596C39.0905 2.60067 35.9261 7.03031 36.2938 11.0669C36.3749 11.9544 36.4789 12.8596 37.625 12.8063C38.52 12.7632 38.7584 12.0533 38.804 11.2216C38.8522 10.3849 38.9232 9.52277 39.1666 8.7266C39.9982 5.99833 41.796 4.1854 44.58 3.47544C47.5086 2.72744 50.0289 3.56165 52.0675 5.73463C54.3318 8.1485 54.4763 11.0112 53.6142 14.0336C52.2552 15.9479 50.8175 17.9028 48.3403 18.2654C46.1064 18.5925 45.8022 19.8096 46.2535 21.5972C46.933 24.2874 45.9771 25.9482 43.6951 27.6394C30.3555 37.518 17.1604 47.5893 3.9298 57.6175C0.32169 60.3534 -0.768604 63.4442 0.522 66.9661C1.63004 69.9961 3.89684 71.6265 7.35028 71.8268C7.865 70.9521 8.31887 70.1508 8.72456 69.4079C6.16871 69.5195 3.98305 68.9743 2.88768 66.1902C1.64526 63.0284 3.41762 61.0633 5.80866 59.2631C19.161 49.2171 32.4955 39.1484 45.7515 28.9782C47.4477 27.6775 48.6597 27.647 50.5056 28.5827C65.3108 36.0956 80.1616 43.5197 95.0302 50.9109C97.7787 52.2776 100.114 53.8268 99.3863 57.3563C98.76 60.4066 96.5718 61.2104 94.0134 61.5451C94.764 62.2145 95.3091 62.9523 95.6438 63.7358C99.2392 62.9701 101.28 60.9568 101.858 57.691C102.513 54.0068 100.908 51.1543 96.8583 49.1005Z" fill="#2B5B5D"/>
<path d="M63.693 72.782C63.295 73.705 62.8867 74.5291 62.4658 75.2593C63.2087 74.9474 63.8426 74.6584 64.3675 74.3896C64.1114 73.8089 63.8857 73.2739 63.693 72.782Z" fill="#2B5B5D"/>
<path d="M62.854 76.9865C63.7516 77.2933 64.5909 77.2249 65.3769 76.7837C65.4327 76.771 65.3338 76.5555 65.0828 76.1295C64.3551 76.449 63.6121 76.7355 62.854 76.9865Z" fill="#2B5B5D"/>
<path d="M87.9606 71.6316C87.9505 71.3857 87.9454 71.1169 87.9454 70.8228C87.9454 70.1889 87.9783 69.2659 88.0443 68.0793C88.133 66.4489 88.1533 65.8809 88.1558 65.5868C88.2015 63.9412 87.5879 62.3945 86.3784 61.1064C85.3743 60.0389 84.213 59.3087 82.9275 58.9385C82.8844 58.9258 82.8413 58.9157 82.7982 58.903C82.4534 58.8168 82.1009 58.7661 81.7459 58.7509C82.2708 56.3852 82.6283 54.6052 82.8362 53.3222C83.105 51.669 83.5031 49.2069 81.5253 47.749C80.0116 46.5294 78.4548 45.9107 76.8979 45.9107C76.581 45.9107 76.2666 45.936 75.9547 45.9893C74.8467 46.1541 73.8705 46.7094 73.1884 47.5664C72.7802 48.0837 72.4911 48.6415 72.339 49.2044C72.2426 49.5518 72.1818 49.927 72.1514 50.3708C72.1463 50.4316 72.1438 50.4874 72.1387 50.5406C71.9181 51.5701 71.2893 54.5317 70.592 57.8304C69.9302 57.5997 69.271 57.4856 68.6219 57.4856C68.2922 57.4856 67.9651 57.516 67.6431 57.5744C65.3459 58.0029 63.3022 59.4862 61.5705 61.9837C61.2966 62.3793 61.0456 62.7799 60.8149 63.1881C60.6298 63.074 60.432 62.9701 60.2266 62.8737C59.3645 62.4782 58.4796 62.2779 57.5947 62.2779C57.1282 62.2779 56.6616 62.3336 56.2077 62.4452C54.9095 62.7672 53.9156 63.3377 53.2411 64.1466C52.6529 63.8448 51.9962 63.6369 51.2862 63.533C50.9845 63.4899 50.6802 63.467 50.381 63.467C50.3582 63.467 50.3328 63.467 50.31 63.467C49.9931 63.2718 49.6761 63.1019 49.3567 62.9574C49.3744 62.8737 49.3947 62.79 49.415 62.7038C49.4606 62.5061 49.4885 62.3032 49.5012 62.1004C49.6026 60.3432 48.7836 58.7154 47.2496 57.6301C46.2176 56.905 45.0487 56.5196 43.8697 56.5196C43.6364 56.5196 43.4031 56.5348 43.1673 56.5652C42.7338 56.621 42.3154 56.7275 41.9249 56.8796C41.4127 55.8248 40.5659 54.9145 39.435 54.2426C38.4766 53.6746 37.4953 53.3881 36.5191 53.3881C35.0662 53.3881 33.7401 54.0169 32.7715 55.1681C32.1731 55.8857 31.3161 57.2219 29.0975 62.0978C29.0214 60.8858 28.5549 59.2656 26.9473 57.7924C25.4133 56.3877 23.8464 56.0936 22.8017 56.0936C22.467 56.0936 22.1272 56.124 21.7951 56.1823C20.1546 56.4739 18.8361 57.3918 18.0856 58.7686C17.6418 59.5825 17.3604 60.5663 17.2209 61.7783C17.1499 62.397 17.0789 62.6227 17.0789 62.6227C17.0384 62.7317 17.0054 62.8433 16.9775 62.9549C16.4679 64.9275 15.1519 68.6548 11.7796 75.2119C8.50112 81.5812 6.21658 84.4566 4.8702 85.7497C4.65214 85.9475 4.50507 86.0616 4.4214 86.1225C3.11305 86.5789 2.14193 87.5297 1.72356 88.7721C1.44972 89.5937 1.20124 91.2418 2.61355 93.0471C3.24997 93.8687 4.11967 94.5482 5.20235 95.068C6.22419 95.5548 7.08881 95.7932 7.91541 95.8135C8.0219 95.8185 8.12586 95.8236 8.23235 95.8236C9.32772 95.8236 10.9555 95.4965 12.5098 93.9346C13.4936 92.9584 14.4749 91.7844 15.4283 90.4456C16.3031 89.2184 17.0637 88.0723 17.6875 87.0404C17.7559 86.9288 17.8219 86.8147 17.8928 86.6955C18.1236 87.0632 18.3873 87.4131 18.6789 87.7402C19.8883 89.0916 21.539 89.8371 23.3291 89.8371C23.9807 89.8371 24.6577 89.7382 25.317 89.5506C26.283 89.2818 27.1375 88.7214 27.9819 87.7605C28.2709 88.549 28.6462 89.2641 29.1026 89.9106C30.2639 91.5461 32.0007 92.4462 33.9937 92.4462C35.0561 92.4462 36.1869 92.1825 37.3558 91.6602C37.437 91.6221 37.5181 91.5841 37.5992 91.541C38.1545 91.2418 38.6616 90.8488 39.1003 90.3721C39.937 89.4694 40.4441 88.3969 40.5912 87.2762C40.8777 87.3142 41.1668 87.337 41.4609 87.337C42.1049 87.337 42.7718 87.2483 43.4386 87.0708C44.7749 86.7183 46.0224 85.9982 47.1609 84.9333C47.7212 85.1311 48.3145 85.2578 48.9307 85.3085C48.9814 85.3136 49.0321 85.3162 49.0853 85.3187C49.1639 85.3212 49.2425 85.3238 49.3212 85.3238C51.7401 85.3238 53.591 83.9723 54.9653 82.3242C55.6601 82.598 56.4157 82.74 57.2169 82.74C57.7925 82.74 58.3985 82.6639 59.0121 82.5143C59.2961 82.4459 59.5724 82.3647 59.8463 82.2735C60.9239 82.8668 62.1359 83.166 63.4595 83.166C63.5304 83.166 63.5989 83.166 63.6724 83.1634C65.9747 83.1406 68.0945 82.1822 69.806 80.3921C70.057 80.1284 70.2903 79.8647 70.5007 79.601C71.4541 80.0599 72.4353 80.2932 73.4217 80.2932C73.513 80.2932 73.6042 80.2906 73.6981 80.2881C76.1347 80.1791 77.296 78.858 77.7727 78.0796C77.9451 77.7982 78.0795 77.4913 78.1708 77.1744C78.224 76.9842 78.2824 76.7991 78.3407 76.6191C78.8072 77.5066 79.4005 78.2571 80.1206 78.8606C81.538 80.0497 83.2166 80.6786 84.9712 80.6786C85.027 80.6786 85.0802 80.6786 85.136 80.676C86.3556 80.6481 87.4459 80.3185 88.3764 79.6948C89.7608 78.7617 90.5342 77.2479 90.4632 75.6252C90.4252 73.8122 89.4794 72.3188 87.9606 71.6316ZM36.4025 87.8568C36.2351 88.0394 36.0525 88.1839 35.8548 88.2879C34.1433 89.0511 32.8958 88.8736 32.1123 87.7681C31.3263 86.6625 30.9358 85.126 30.9358 83.1634C30.9358 81.9312 31.0981 79.9788 31.4201 77.3113C31.7421 74.6439 32.0565 72.5013 32.3658 70.8862C32.1123 71.3654 31.4049 72.9577 30.241 75.648C29.0772 78.3382 27.9616 80.6913 26.8966 82.7045C25.8317 84.7203 24.9772 85.8131 24.3306 85.9932C23.1237 86.3355 22.1577 86.092 21.43 85.2781C20.6997 84.4617 20.3371 83.4195 20.3371 82.1568C20.3371 80.8104 20.4487 78.8098 20.6744 76.15C20.8975 73.4927 21.0243 71.6975 21.0522 70.767C20.9964 70.9166 20.5755 71.9486 19.7894 73.8528C19.0034 75.757 18.471 77.0324 18.192 77.6866C17.9106 78.3433 17.3731 79.5224 16.5718 81.2085C15.7731 82.8947 15.0936 84.2005 14.5332 85.1285C13.9729 86.0591 13.2705 87.1189 12.4312 88.298C11.5894 89.477 10.7502 90.4862 9.90836 91.3179C9.32011 91.9112 8.70397 92.18 8.0574 92.1191C7.77849 92.1293 7.35758 92.0025 6.79469 91.7337C6.23433 91.4649 5.81343 91.1455 5.53198 90.7829C5.0274 90.1388 5.0984 89.7331 5.74243 89.5607C6.13544 89.4466 6.68313 89.0739 7.38294 88.44C9.62438 86.3025 12.1828 82.4712 15.0581 76.8879C17.9309 71.302 19.7616 66.9078 20.545 63.8677C20.6845 63.4797 20.7986 62.9219 20.8823 62.1942C20.966 61.4665 21.113 60.9086 21.3235 60.5232C21.5339 60.1378 21.9041 59.8995 22.4366 59.8031C23.1364 59.6789 23.8109 59.9122 24.4549 60.5029C25.0989 61.0937 25.4235 61.7505 25.4235 62.4807C25.4235 64.1618 25.2967 65.9418 25.0457 67.813C24.962 68.812 24.7997 70.3714 24.5614 72.4912C24.323 74.6135 24.1405 76.505 24.0137 78.1684C23.8869 79.8317 23.8235 81.4063 23.8235 82.8921C26.6963 76.5481 29.5717 70.1179 32.4444 63.6319C33.9861 60.2367 35.0383 58.1956 35.5987 57.5236C36.0754 56.9557 36.727 56.9202 37.5536 57.4095C38.3802 57.8989 38.7935 58.5353 38.7935 59.3188C38.7935 59.6282 38.7301 60.0795 38.6033 60.6703C38.4766 61.2636 38.3143 61.9711 38.119 62.7926C37.9238 63.6141 37.8097 64.0984 37.7818 64.2455C37.726 64.57 37.4167 66.0432 36.8563 68.665C36.296 71.2893 35.8953 73.2037 35.657 74.4131C35.4187 75.6226 35.1651 77.22 34.8989 79.2054C34.6326 81.1933 34.4982 82.8287 34.4982 84.1194C34.4982 85.4657 34.6098 86.3202 34.8355 86.6854C34.9192 86.6651 35.2564 86.4825 35.8446 86.1402C36.405 85.6635 36.7549 85.6863 36.8969 86.2112C37.049 86.7969 36.8791 87.3446 36.4025 87.8568ZM86.3201 76.6267C85.9829 76.8524 85.5645 76.969 85.0574 76.9817C84.1319 77.002 83.2774 76.685 82.4914 76.0283C81.7054 75.3691 81.1881 74.2864 80.9345 72.76C80.681 71.2361 80.5568 68.9895 80.5568 66.0178C80.3894 66.2283 80.1561 66.4971 79.862 66.8292C79.5679 67.1614 79.3422 67.4276 79.1901 67.6229C79.0354 67.8206 78.8047 68.1274 78.4953 68.5509C78.186 68.9743 77.8437 69.5068 77.4659 70.1483C77.0881 70.7923 76.6317 71.5809 76.0992 72.514C75.511 73.5663 75.0191 74.7808 74.6261 76.1526C74.4587 76.4289 74.0936 76.576 73.5332 76.6014C72.9729 76.6267 72.3897 76.4619 71.7888 76.1095C71.1853 75.757 70.8836 75.3336 70.8836 74.8264C70.9622 74.332 71.1219 73.475 71.3577 72.2731C70.4551 73.0414 69.3876 73.7716 68.1502 74.4715C68.1781 74.5501 68.2136 74.6642 68.2542 74.8087C68.2973 74.9558 68.3303 75.0673 68.3582 75.1459C68.5813 75.861 68.1756 76.7535 67.1385 77.8387C66.1015 78.924 64.9225 79.4666 63.6065 79.4716C62.7089 79.4995 61.9381 79.2865 61.2941 78.8301C60.9061 78.5563 60.5917 78.2444 60.3356 77.9072C59.6992 78.3813 58.969 78.7211 58.1398 78.924C57.047 79.1902 56.1976 79.0178 55.5967 78.3966C54.9932 77.7779 54.6357 76.8676 54.5241 75.6607C52.843 79.7049 51.0758 81.6953 49.2248 81.6269C48.4109 81.561 47.7237 81.2339 47.1634 80.6405C46.9174 80.3794 46.7121 80.0903 46.5422 79.7759C46.2557 80.2627 45.9717 80.6912 45.6928 81.0538C44.6836 82.3876 43.6187 83.204 42.4954 83.5007C41.3189 83.8126 40.3224 83.6173 39.5085 82.9175C38.6946 82.2177 38.3168 80.9905 38.3726 79.2358C38.5678 76.1855 39.0597 73.2848 39.8458 70.5286C39.6784 70.5591 39.5085 70.587 39.3412 70.6174C38.6388 70.7999 38.0734 70.8405 37.6373 70.7416C37.2012 70.6427 36.9375 70.5058 36.8386 70.3359C36.7397 70.1661 36.7194 70.0291 36.7752 69.9302C36.9146 69.2228 37.2088 68.7689 37.6576 68.5712C38.654 68.2339 39.648 67.8916 40.6445 67.5468C41.7931 63.4341 42.4244 61.2459 42.536 60.9923C42.7591 60.541 43.1242 60.2824 43.6288 60.219C44.1334 60.1556 44.6304 60.295 45.1223 60.6424C45.6116 60.9898 45.8449 61.4031 45.817 61.8874C45.2566 64.3646 44.8915 65.8632 44.7242 66.3855C45.7891 66.1015 46.5472 65.9976 46.996 66.0736C47.5285 66.1294 48.1168 66.3931 48.7633 66.8647C48.9586 67.0929 48.776 67.3389 48.2156 67.5975C48.0179 67.6786 47.7542 67.7623 47.4169 67.8511C47.0797 67.9119 45.9311 68.2618 43.9686 68.8957C43.1268 72.1742 42.503 75.0952 42.0973 77.6562C41.6916 80.2171 41.6688 81.4646 42.0339 81.3936C42.7059 81.0209 43.5756 79.8925 44.6405 78.0111C45.3986 76.6698 46.0858 75.2195 46.7019 73.6601C46.7298 73.5384 46.7552 73.4192 46.7856 73.2975C47.2623 71.3071 47.9621 69.4307 48.8876 67.671C49.4479 67.2425 50.0717 67.0777 50.7588 67.1766C51.446 67.278 51.9302 67.5569 52.2092 68.0159C52.3486 68.2593 52.2928 68.5686 52.0418 68.9439C51.5093 69.8669 50.9338 71.5885 50.3176 74.1063C49.7015 76.6242 49.4631 78.3433 49.6026 79.2586C50.0514 79.2257 51.1442 77.4482 52.8836 73.9415C54.6205 70.4348 55.6601 68.0032 55.9948 66.6289C56.1063 66.3779 56.4714 66.1725 57.0876 66.0204C57.5922 65.8961 58.1246 65.9621 58.685 66.2207C59.2453 66.4793 59.4837 66.8292 59.4 67.2679C59.3721 67.3871 59.2606 67.7775 59.0628 68.4419C58.8675 69.1062 58.7129 69.6818 58.6013 70.1711C58.4897 70.6605 58.3503 71.2487 58.1804 71.9333C58.0131 72.6205 57.8863 73.2671 57.8026 73.8756C57.7189 74.4841 57.6758 75.0293 57.6758 75.5035C57.6758 76.1754 57.7747 76.6724 57.97 76.9868C58.6698 76.7307 59.4913 75.7494 60.4295 74.0455C61.3042 72.4582 62.1232 70.5439 62.889 68.3075C63.0867 66.847 63.6496 65.4347 64.5928 64.0756C65.7567 62.3996 66.9966 61.436 68.3151 61.1901C68.7638 61.1064 69.2811 61.2154 69.8719 61.5172C70.4601 61.8215 70.8253 62.1587 70.9647 62.5289C71.16 62.9447 70.8658 63.216 70.0823 63.3529C69.2684 63.8296 68.5534 64.5016 67.9373 65.3611C67.3211 66.2207 66.9281 67.1462 66.7608 68.1325C66.6771 68.5686 66.6619 69.0783 66.7176 69.6539C66.9408 70.8431 67.207 71.8294 67.5164 72.6104C68.7791 71.7508 69.8364 70.8354 70.6909 69.8491C71.3882 69.0453 71.9764 68.0387 72.4582 66.8318C72.7599 65.3789 73.1022 63.746 73.4851 61.9254C74.9988 54.7548 75.7696 51.134 75.7975 51.0148C75.7975 50.959 75.8051 50.8322 75.8178 50.6345C75.8305 50.4367 75.8533 50.2871 75.8812 50.1857C75.9091 50.0842 75.9725 49.9727 76.0713 49.8459C76.1702 49.7217 76.3173 49.6481 76.5125 49.6253C77.3264 49.4732 78.2494 49.8231 79.289 50.6852C79.5679 50.8576 79.1546 53.4059 78.0491 58.3528C76.941 63.3022 76.2057 66.4159 75.8406 67.666C76.794 66.2029 77.8386 64.9149 78.9746 63.8144C80.1105 62.714 81.0842 62.2728 81.8981 62.4756C82.5421 62.6607 83.138 63.0461 83.6856 63.6268C84.2333 64.21 84.492 64.8413 84.4641 65.5133C84.4641 65.8226 84.4286 66.6086 84.3601 67.8713C84.2891 69.1341 84.2536 70.1179 84.2536 70.8177C84.2536 72.5571 84.421 73.939 84.7582 74.9659C84.8419 74.9913 85.0675 74.971 85.4301 74.9101C85.7952 74.8467 86.1096 74.8645 86.3759 74.9634C86.6421 75.0597 86.7765 75.3209 86.7765 75.7393C86.8094 76.1069 86.6573 76.401 86.3201 76.6267Z" fill="#2B5B5D"/>
</svg>
